<svg width="1447" height="295" viewBox="0 0 1447 295" fill="none" xmlns="http://www.w3.org/2000/svg">
<path d="M0 293.618C481.985 293.618 963.971 293.618 1445.96 293.618" stroke="url(#paint0_linear_193_829)" stroke-miterlimit="10"/>
<path d="M0 285.41C244.065 285.471 488.01 284.004 732.015 282.343C837.59 281.621 943.888 281.858 1049.45 283.38C1181.6 285.283 1313.8 283.491 1445.92 285.41" stroke="url(#paint1_linear_193_829)" stroke-miterlimit="10"/>
<path d="M0 277.324C69.1548 277.324 138.33 277.616 207.475 277.473C269.269 277.346 330.923 274.593 392.697 274.119C507.771 273.237 622.825 274.263 737.889 273.22C840.02 272.293 943.205 269.839 1045.27 273.584C1104.75 275.79 1163.62 276.794 1223.16 277.704C1297.46 278.841 1371.68 275.757 1445.96 277.324" stroke="url(#paint2_linear_193_829)" stroke-miterlimit="10"/>
<path d="M0 269.348C68.1607 269.348 136.502 269.977 204.643 269.298C268.677 268.658 332.339 264.174 396.322 263.021C511.617 260.942 626.008 266.882 741.183 265.823C842.53 264.908 942.442 257.472 1043.9 264.124C1103.2 268.013 1160.67 271.058 1220.41 271.946C1295.72 273.049 1370.66 267.682 1445.96 269.348" stroke="url(#paint3_linear_193_829)" stroke-miterlimit="10"/>
<path d="M0 261.526C66.9257 261.526 134.343 262.53 201.219 261.146C268.094 259.761 334.016 253.39 400.69 251.333C461.3 249.463 521.056 249.965 581.345 254.036C635.377 257.687 687.863 260.324 742.338 259.927C790.084 259.574 834.819 255.591 881.973 251.879C935.935 247.626 991.494 249.612 1044.95 255.029C1103.8 260.997 1159.3 266.706 1219.38 267.357C1295.17 268.184 1370.11 260.098 1445.96 261.526" stroke="url(#paint4_linear_193_829)" stroke-miterlimit="10"/>
<path d="M0 253.815C65.4797 253.815 131.954 255.167 197.323 253.004C267.17 250.699 335.833 242.348 405.53 239.215C465.372 236.49 525.614 238.357 584.518 244.764C637.104 250.401 687.944 255.437 741.695 255.205C791.47 254.99 836.506 248.068 884.825 242.469C939.67 236.115 993.944 238.525 1047.96 246.231C1105.84 254.505 1159.29 263.418 1219.78 263.656C1295.71 263.959 1369.9 252.889 1445.96 253.821" stroke="url(#paint5_linear_193_829)" stroke-miterlimit="10"/>
<path d="M0 246.225C63.9333 246.192 129.433 247.88 193.146 244.929C266.287 241.57 337.741 231.206 410.611 226.876C471.763 223.246 528.276 226.622 587.259 235.74C637.757 243.55 686.668 251.372 739.637 251.388C792.012 251.388 838.604 240.991 888.309 233.401C944.932 224.757 997.147 227.273 1052.48 237.714C1108.79 248.338 1160.49 260.881 1221.32 260.605C1297.13 260.23 1369.93 245.972 1445.96 246.225" stroke="url(#paint6_linear_193_829)" stroke-miterlimit="10"/>
<path d="M0 238.757C62.3167 238.707 126.832 240.583 188.778 236.953C265.273 232.474 339.398 220.108 415.622 214.526C477.627 209.986 531.449 214.84 589.478 226.986C637.355 237.008 684.379 247.869 736.484 248.211C791.55 248.575 841.195 234.294 892.125 224.68C950.937 213.577 1001.15 215.938 1057.99 229.468C1112.11 242.353 1162.58 258.895 1223.67 257.969C1299.21 256.821 1370.09 239.286 1445.94 238.757" stroke="url(#paint7_linear_193_829)" stroke-miterlimit="10"/>
<path d="M0 231.41C60.7201 231.343 124.232 233.34 184.5 229.11C264.269 223.511 341.075 209.203 420.472 202.374C483.732 196.93 534.502 203.163 591.306 218.508C636.231 230.643 681.356 244.659 732.738 245.398C790.496 246.22 844.127 227.67 896.231 216.269C923.524 210.328 952.292 204.762 982.045 206.042C1011.16 207.3 1038.74 214.035 1064.2 221.487C1115.53 236.473 1165.54 257.103 1226.62 255.525C1301.83 253.578 1370.34 232.778 1445.97 231.426" stroke="url(#paint8_linear_193_829)" stroke-miterlimit="10"/>
<path d="M0.0495605 224.189C59.2936 224.107 121.771 226.153 180.392 221.431C263.203 214.779 342.41 198.623 424.749 190.614C489.455 184.315 537.292 191.811 592.56 210.317C634.463 224.349 677.701 241.498 728.62 242.662C788.869 244.035 847.108 221.122 900.207 208.155C928.022 201.359 958.698 194.194 989.766 195.771C1018.89 197.25 1046.17 205.325 1070.52 213.698C1119.07 230.4 1168.56 255.194 1229.79 252.982C1304.68 250.268 1370.55 226.307 1445.98 224.189" stroke="url(#paint9_linear_193_829)" stroke-miterlimit="10"/>
<path d="M0.0602417 217.096C57.8884 216.997 119.442 219.043 176.567 213.974C262.079 206.378 343.415 188.518 428.304 179.439C460.627 175.986 491.263 173.989 522.924 180.046C548.72 184.982 571.414 193.648 593.304 202.407C632.465 218.067 673.805 238.15 724.605 239.722C787.062 241.658 849.981 214.592 903.943 200.3C932.24 192.804 964.804 184.122 997.057 185.959C1026.31 187.613 1053.23 196.919 1076.53 206.108C1122.5 224.222 1171.4 252.894 1232.97 250.119C1307.59 246.749 1370.73 219.821 1446.02 217.068" stroke="url(#paint10_linear_193_829)" stroke-miterlimit="10"/>
<path d="M0.0701904 210.118C56.6834 210.014 117.403 212.049 173.213 206.748C260.895 198.419 343.776 179.025 430.804 169.091C463.238 165.39 493.784 163.095 525.283 169.968C550.839 175.578 572.618 185.203 593.444 194.823C630.306 211.828 669.919 234.432 720.97 236.335C753.594 237.554 786.399 228.205 814.575 220.29C845.834 211.508 875.888 201.502 907.136 192.71C935.855 184.635 969.995 174.728 1003.33 176.797C1032.79 178.623 1059.29 188.877 1081.77 198.75C1125.63 218.056 1173.6 249.971 1235.76 246.738C1310.25 242.877 1370.75 213.268 1446.03 210.096" stroke="url(#paint11_linear_193_829)" stroke-miterlimit="10"/>
<path d="M0.0803223 203.268C55.6793 203.163 115.757 205.204 170.492 199.804C259.72 191.006 343.565 170.288 432.05 159.736C464.333 155.875 495.109 153.409 526.288 160.773C551.813 166.802 572.94 177.255 593.013 187.536C628.338 205.623 666.455 230.102 718.128 232.215C751.646 233.572 785.405 223.445 814.023 215.072C846.326 205.612 877.283 194.845 909.587 185.374C938.706 176.83 973.851 166.146 1008.08 168.324C1037.85 170.222 1063.9 181.116 1085.76 191.557C1128.27 211.85 1174.78 246.054 1237.93 242.607C1312.42 238.542 1370.61 206.555 1446.04 203.29" stroke="url(#paint12_linear_193_829)" stroke-miterlimit="10"/>
<path d="M0.100342 196.538C54.9161 196.45 114.622 198.529 168.554 193.173C258.535 184.238 342.611 162.433 431.778 151.595C463.619 147.734 494.969 145.218 525.705 152.632C551.441 158.837 572.277 169.852 591.978 180.57C626.741 199.511 663.734 224.973 716.491 227.024C750.752 228.359 784.602 218.127 813.621 209.374C846.607 199.445 878.137 188.126 911.113 178.187C940.604 169.295 975.899 158.44 1010.83 160.602C1040.96 162.467 1066.56 173.559 1088.15 184.447C1130.33 205.711 1174.62 240.781 1239.24 237.367C1313.92 233.423 1370.35 199.467 1446.1 196.549" stroke="url(#paint13_linear_193_829)" stroke-miterlimit="10"/>
<path d="M0.110413 189.919C54.7254 189.732 114.241 192.07 167.942 186.61C257.31 177.503 340.312 155.048 428.776 143.955C460.527 139.978 491.856 137.595 522.572 144.921C548.68 151.159 569.927 162.307 589.92 173.156C625.326 192.374 662.71 218.16 716.16 220.565C750.662 222.115 784.31 212.01 813.461 203.119C846.497 193.036 877.966 181.496 910.992 171.408C940.624 162.351 975.739 151.644 1010.93 153.961C1041.26 155.958 1066.71 167.072 1088.34 178.082C1130.69 199.644 1174.14 234.25 1239.27 231.035C1314.16 227.35 1370.01 192.467 1446.07 189.919" stroke="url(#paint14_linear_193_829)" stroke-miterlimit="10"/>
<path d="M0.120422 183.449C54.9663 183.107 114.301 186.058 168.193 180.217C255.974 170.702 337.108 147.877 423.956 136.393C456.088 132.14 486.594 129.928 517.752 137.303C544.332 143.586 566.333 154.617 587.058 165.373C623.639 184.381 662.599 210.427 716.049 213.709C750.34 215.816 784.11 205.684 813.009 196.797C845.643 186.764 876.641 175.214 909.265 165.169C938.837 156.063 973.951 145.439 1009.1 148.191C1039.33 150.558 1065.16 161.832 1087.09 172.721C1129.65 193.846 1174.36 227.802 1238.71 224.68C1313.78 221.034 1369.81 185.953 1446.05 183.449" stroke="url(#paint15_linear_193_829)" stroke-miterlimit="10"/>
<path d="M0.140686 177.089C55.2979 176.681 114.472 180.454 168.695 174.271C254.689 164.463 333.705 141.341 418.725 129.592C451.128 125.102 480.921 123.1 512.431 130.381C539.422 136.619 562.306 147.364 583.805 158.037C621.61 176.791 662.368 202.744 715.768 206.82C749.748 209.418 783.256 199.495 811.894 190.647C843.976 180.719 874.321 169.24 906.383 159.317C935.865 150.194 970.648 139.873 1005.63 143.018C1035.9 145.742 1062.19 157.066 1084.61 167.839C1127.74 188.524 1173.91 221.63 1237.77 218.552C1313.17 214.923 1369.51 179.615 1446.08 177.122" stroke="url(#paint16_linear_193_829)" stroke-miterlimit="10"/>
<path d="M0.160706 170.851C55.6995 170.459 114.843 175.23 169.448 168.733C253.474 158.743 330.19 135.384 413.212 123.431C445.746 118.748 474.976 116.988 506.747 124.059C534.22 130.171 557.958 140.607 580.29 151.087C619.672 169.505 661.856 195.082 715.407 199.908C748.985 202.931 781.901 193.438 810.257 184.651C841.637 174.921 871.208 163.542 902.568 153.801C931.939 144.672 966.049 134.865 1000.82 138.357C1031.23 141.418 1058.06 152.698 1081.15 163.322C1125.14 183.548 1172.96 215.64 1236.48 212.578C1312.35 208.921 1369.12 173.377 1446.15 170.867" stroke="url(#paint17_linear_193_829)" stroke-miterlimit="10"/>
<path d="M0.170593 164.734C56.1612 164.425 115.285 170.343 170.382 163.564C252.299 153.487 326.575 129.917 407.458 117.898C439.972 113.055 468.801 111.549 500.732 118.312C528.698 124.236 553.269 134.308 576.515 144.468C617.684 162.467 661.153 187.431 714.905 192.953C779.772 199.622 845.322 164.916 897.888 148.556C927.149 139.443 960.335 130.314 994.807 134.137C1025.45 137.54 1052.85 148.71 1076.73 159.174C1121.84 178.926 1171.44 209.87 1234.81 206.792C1311.23 203.086 1368.55 167.282 1446.13 164.734" stroke="url(#paint18_linear_193_829)" stroke-miterlimit="10"/>
<path d="M0.190796 158.743C56.6734 158.572 115.807 165.76 171.476 158.743C251.195 148.66 322.91 124.981 401.544 112.923C433.947 107.959 462.495 106.723 494.517 113.094C522.994 118.77 548.419 128.395 572.578 138.235C615.535 155.721 660.3 179.853 714.322 186.058C778.205 193.383 840.934 159.681 892.526 143.586C921.054 134.7 954.311 125.742 987.839 130.32C1018.97 134.567 1046.39 144.865 1071.63 155.346C1118.04 174.596 1169.55 204.288 1232.91 201.177C1309.99 197.399 1367.91 161.325 1446.15 158.705" stroke="url(#paint19_linear_193_829)" stroke-miterlimit="10"/>
<path d="M0.210815 152.869C57.2257 152.869 116.419 161.435 172.711 154.16C250.16 144.148 319.245 120.369 395.559 108.378C528.105 87.5332 597.25 164.485 713.68 179.213C776.438 187.161 835.993 154.673 886.652 138.903C915.049 130.077 947.021 122.041 980.127 126.878C1011.65 131.484 1039.71 141.556 1065.97 151.837C1113.82 170.591 1167.33 198.932 1230.82 195.771C1308.61 191.91 1367.22 155.555 1446.18 152.869" stroke="url(#paint20_linear_193_829)" stroke-miterlimit="10"/>
<path d="M0.230957 147.121C57.7981 147.353 117.092 157.326 174.057 149.835C249.196 139.956 315.64 116.122 389.575 104.235C519.379 83.3743 598.435 156.636 712.987 172.417C774.661 180.923 830.641 149.874 880.376 134.407C908.653 125.615 939.229 118.637 971.863 123.695C1003.8 128.66 1032.58 138.478 1059.9 148.544C1109.28 166.747 1164.83 193.725 1228.59 190.493C1307.14 186.516 1366.49 149.896 1446.21 147.121" stroke="url(#paint21_linear_193_829)" stroke-miterlimit="10"/>
<path d="M0.251038 141.495C58.3905 141.964 117.805 153.393 175.483 145.715C248.323 136.018 312.045 112.156 383.69 100.429C510.744 79.629 599.58 148.886 712.274 165.721C772.843 174.767 825.018 145.246 873.879 130.083C902.056 121.34 931.115 115.482 963.248 120.706C995.631 125.996 1025.15 135.599 1053.55 145.417C1104.52 163.068 1162.12 188.639 1226.2 185.335C1305.53 181.237 1365.66 144.341 1446.17 141.473" stroke="url(#paint22_linear_193_829)" stroke-miterlimit="10"/>
<path d="M0.271057 135.99C58.9728 136.702 118.558 149.592 176.999 141.754C247.59 132.278 308.681 108.405 378.017 96.8771C502.369 76.1981 600.704 141.297 711.551 159.14C771.026 168.716 819.284 140.767 867.312 125.896C895.368 117.209 923.012 112.504 954.612 117.915C987.447 123.541 1017.74 132.901 1047.2 142.477C1099.77 159.576 1159.4 183.736 1223.88 180.349C1304.04 176.135 1364.91 138.98 1446.23 135.99" stroke="url(#paint23_linear_193_829)" stroke-miterlimit="10"/>
<path d="M0.291138 130.612C59.5352 131.561 119.321 145.88 178.435 137.91C246.857 128.682 305.368 104.814 372.494 93.5124C494.386 72.9933 601.839 133.856 710.888 152.698C769.279 162.792 813.611 136.415 860.856 121.809C888.791 113.177 915.079 109.624 946.077 115.19C979.364 121.158 1010.42 130.303 1040.94 139.614C1095.05 156.129 1156.66 178.926 1221.59 175.467C1302.56 171.138 1364.18 133.679 1446.29 130.623" stroke="url(#paint24_linear_193_829)" stroke-miterlimit="10"/>
<path d="M0.311279 125.35C60.1477 126.525 120.075 142.218 179.911 134.137C246.274 125.174 302.315 101.323 367.353 90.2636C486.906 69.932 602.954 126.569 710.175 146.41C767.592 157.033 807.958 132.118 854.55 117.804C882.395 109.255 907.307 106.773 937.783 112.498C971.502 118.808 1003.31 127.772 1034.82 136.812C1090.42 152.759 1153.93 174.215 1219.31 170.669C1301.04 166.228 1363.39 128.5 1446.25 125.35" stroke="url(#paint25_linear_193_829)" stroke-miterlimit="10"/>
<path d="M0.331421 120.215C60.7302 121.583 120.828 138.566 181.337 130.403C245.802 121.71 299.524 97.859 362.614 87.0589C423.816 76.5787 488.924 88.4102 546.089 101.053C601.216 113.248 653.622 129.244 709.573 140.304C766.266 151.512 802.425 127.772 848.666 113.827C910.069 95.3217 972.958 118.792 1029.16 134.01C1086.1 149.41 1151.4 169.588 1217.21 165.964C1299.66 161.43 1362.69 123.436 1446.29 120.209" stroke="url(#paint26_linear_193_829)" stroke-miterlimit="10"/>
<path d="M0.351379 115.195C61.3125 116.723 121.42 134.882 182.702 126.657C245.451 118.229 297.033 94.395 358.426 83.8321C419.066 73.385 485.891 84.7311 543.328 96.309C599.569 107.65 653.1 122.625 709.04 134.407C764.981 146.189 797.655 123.613 843.303 109.867C903.311 91.8025 968.82 117.038 1024.05 131.186C1082.19 146.079 1149.14 165.031 1215.32 161.358C1298.41 156.741 1362.06 118.494 1446.27 115.195" stroke="url(#paint27_linear_193_829)" stroke-miterlimit="10"/>
<path d="M0.371582 110.303C61.905 111.958 121.962 131.131 183.958 122.857C245.21 114.688 294.895 90.8648 354.661 80.506C414.839 70.1086 483.19 80.9914 540.888 91.6095C598.124 102.15 652.728 116.227 708.579 128.731C734.927 134.628 754.237 134.871 779.712 127.264C800.417 121.081 817.929 112.101 838.604 105.874C866.188 97.5556 888.158 97.7873 917.047 103.971C951.76 111.412 985.579 119.967 1019.64 128.279C1078.75 142.665 1147.17 160.514 1213.64 156.807C1297.3 152.141 1361.49 113.64 1446.3 110.303" stroke="url(#paint28_linear_193_829)" stroke-miterlimit="10"/>
<path d="M0.391541 105.526C62.4973 107.181 122.374 127.27 185.092 118.968C245.13 111.02 293.117 87.1085 351.678 77.0144C411.545 66.6942 481.152 77.1248 539.08 86.943C597.009 96.7613 652.628 110.11 708.297 123.348C734.023 129.465 752.831 130.331 778.085 122.763C798.107 116.762 814.816 107.903 834.788 101.858C862.221 93.5511 883.85 94.4336 912.237 100.821C947.121 108.67 981.462 117.209 1016.17 125.289C1076.02 139.223 1145.77 156.079 1212.34 152.361C1296.47 147.667 1361.09 108.935 1446.31 105.576" stroke="url(#paint29_linear_193_829)" stroke-miterlimit="10"/>
<path d="M0.411621 100.882C63.0998 102.492 122.635 123.276 186.056 114.953C245.2 107.181 291.691 83.0874 349.439 73.2912C409.225 63.1365 479.585 73.0926 537.875 82.2104C596.637 91.3943 652.739 104.186 708.177 118.152C733.381 124.495 751.977 125.83 777.041 118.262C796.521 112.388 812.557 103.584 831.977 97.6549C859.279 89.3204 880.888 90.6718 908.843 97.3018C943.777 105.576 978.52 114.136 1013.76 122.046C1074 135.577 1144.92 151.562 1211.44 147.871C1295.9 143.183 1360.82 104.23 1446.41 100.882" stroke="url(#paint30_linear_193_829)" stroke-miterlimit="10"/>
<path d="M0.431763 96.3531C63.6923 97.8148 122.715 119.101 186.84 110.755C245.371 103.138 290.858 78.9395 347.913 69.2591C407.509 59.154 478.792 68.895 537.233 77.4447C596.597 86.1322 652.949 98.576 708.127 113.298C732.919 119.917 751.616 121.517 776.549 113.899C795.627 108.069 811.161 99.26 830.21 93.3745C857.412 84.9683 879.322 86.5569 906.946 93.4904C941.809 102.239 976.813 110.86 1012.44 118.637C1072.87 131.826 1144.6 147.094 1210.86 143.459C1295.52 138.82 1360.6 99.6571 1446.39 96.3531" stroke="url(#paint31_linear_193_829)" stroke-miterlimit="10"/>
<path d="M0.462036 91.9404C64.0439 93.2532 122.655 114.771 187.171 106.348C245.501 98.736 290.718 74.5599 347.592 64.9347C407.127 54.8626 478.732 64.8023 537.193 73.1699C596.768 81.6974 652.94 94.0475 708.187 108.836C732.889 115.455 751.847 116.834 776.609 109.266C795.557 103.474 810.991 94.7425 829.939 88.9343C857.05 80.6273 879.362 82.1718 906.725 89.3038C941.438 98.3499 976.482 107.037 1012.26 114.738C1072.4 127.683 1145.07 142.78 1210.81 139.007C1295.35 134.165 1360.86 95.6637 1446.42 91.957" stroke="url(#paint32_linear_193_829)" stroke-miterlimit="10"/>
<path d="M0.481934 87.5994C64.2044 88.846 122.645 110.507 187.311 101.985C245.551 94.3067 290.999 70.3347 347.913 60.7701C407.448 50.7643 478.892 61.1397 537.263 69.5625C596.648 78.1341 652.578 90.4621 708.207 104.55C760.864 117.882 786.961 97.3791 830.33 84.5932C857.442 76.6007 879.894 78.0569 907.006 85.2165C941.568 94.3453 976.552 103.011 1012.32 110.623C1072.11 123.342 1145.72 138.511 1210.99 134.418C1295.16 129.134 1361.48 92.1996 1446.47 87.6821" stroke="url(#paint33_linear_193_829)" stroke-miterlimit="10"/>
<path d="M0.502075 83.3246C64.4153 84.5271 122.715 106.348 187.583 97.7542C245.823 90.0319 291.45 66.3136 348.395 56.8373C407.93 46.9087 479.164 57.6812 537.444 66.1316C596.597 74.7088 652.317 86.9816 708.267 100.358C760.482 112.846 787.514 92.7071 830.912 80.5005C858.024 72.8555 880.677 74.2675 907.548 81.4382C941.95 90.6166 976.833 99.2159 1012.59 106.695C1072.14 119.156 1146.48 134.165 1211.21 129.796C1294.96 124.148 1362.09 88.8184 1446.46 83.5838" stroke="url(#paint34_linear_193_829)" stroke-miterlimit="10"/>
<path d="M0.522156 79.127C64.6563 80.2964 122.866 102.294 187.974 93.6614C246.144 85.9502 292.043 62.5021 349.028 53.1251C408.563 43.362 479.565 54.4048 537.735 62.8607C596.607 71.4103 652.206 83.5894 708.358 96.2263C760.201 107.881 788.156 88.1896 831.666 76.5511C858.848 69.2867 881.672 70.6987 908.341 77.8639C942.552 87.0589 977.366 95.5588 1013.06 102.862C1072.46 115.024 1147.26 129.664 1211.54 125.069C1294.88 119.117 1362.78 85.4482 1446.51 79.5683" stroke="url(#paint35_linear_193_829)" stroke-miterlimit="10"/>
<path d="M0.542175 75.0011C64.9475 76.1595 123.047 98.3278 188.486 89.6899C246.606 82.0229 292.786 58.8396 349.821 49.6501C409.336 40.058 479.977 51.349 538.126 59.7773C596.678 68.2718 652.106 80.324 708.488 92.1997C759.94 103.038 788.879 83.8652 832.589 72.8555C859.862 65.9827 882.866 67.4444 909.366 74.5874C943.309 83.8291 978.14 92.0525 1013.71 99.2214C1073.05 111.047 1148.06 125.146 1211.97 120.342C1294.77 114.147 1363.51 82.1773 1446.5 75.7403" stroke="url(#paint36_linear_193_829)" stroke-miterlimit="10"/>
<path d="M0.572449 70.9525C65.2689 72.1108 123.348 94.4722 189.109 85.8454C247.178 78.239 293.67 55.3646 350.775 46.3627C410.27 36.9857 480.61 48.4532 538.649 56.8428C596.889 65.2491 652.166 77.1358 708.679 88.2393C759.749 98.2782 789.733 79.6731 833.704 69.3308C861.107 62.8827 884.282 64.4272 910.631 71.5372C944.37 80.7176 979.074 88.7869 1014.56 95.7023C1073.93 107.159 1148.93 120.491 1212.5 115.559C1294.77 109.178 1364.29 78.956 1446.56 72.0171" stroke="url(#paint37_linear_193_829)" stroke-miterlimit="10"/>
<path d="M0.592468 66.9921C65.6203 68.1559 123.689 90.7104 189.822 82.1497C247.851 74.6371 294.674 52.0937 351.799 43.3069C411.264 34.1615 481.232 45.7669 539.221 54.0849C597.029 62.3587 652.287 74.0579 708.86 84.3726C759.569 93.6228 790.657 75.652 834.929 66.0102C862.482 60.009 885.839 61.6692 912.077 68.7682C945.585 77.8609 980.133 85.7487 1015.5 92.3817C1074.98 103.413 1149.75 115.857 1213.05 110.81C1294.74 104.302 1365.01 75.8616 1446.54 68.4979" stroke="url(#paint38_linear_193_829)" stroke-miterlimit="10"/>
<path d="M0.612488 63.1089C66.0018 64.3003 124.121 87.0699 190.635 78.5534C248.624 71.1731 295.788 48.9882 352.974 40.4386C412.399 31.558 481.985 43.2462 539.844 51.4704C597.25 59.6339 652.447 71.0683 709.04 80.5887C759.398 89.0556 791.651 71.7633 836.254 62.8607C863.979 57.3448 887.516 59.1319 913.673 66.1702C946.96 75.1551 981.364 82.8322 1016.63 89.1439C1076.29 99.7509 1150.64 111.141 1213.71 106.006C1294.81 99.3869 1365.81 72.7948 1446.57 65.0505" stroke="url(#paint39_linear_193_829)" stroke-miterlimit="10"/>
<path d="M0.632507 59.3139C66.4135 60.5385 124.523 83.5287 191.529 75.128C249.477 67.8581 297.013 46.0482 354.259 37.7634C413.634 29.1751 482.788 40.9019 540.566 49.0213C597.571 57.0359 652.718 68.1835 709.261 76.8986C759.277 84.6208 792.765 68.0346 837.72 59.8986C865.635 54.8516 889.353 56.8318 915.451 63.7598C948.504 72.6084 982.746 80.051 1017.87 86.0219C1077.77 96.1435 1151.51 106.359 1214.4 101.163C1294.9 94.5439 1366.57 69.7776 1446.57 61.7134" stroke="url(#paint40_linear_193_829)" stroke-miterlimit="10"/>
<path d="M0.652771 55.6128C66.8454 56.8814 125.015 80.0923 192.443 71.8074C250.422 64.7085 298.329 43.2737 355.645 35.2757C414.959 27.0019 483.632 38.7231 541.41 46.7212C597.993 54.5648 653.1 65.3925 709.583 73.2967C759.257 80.2523 794.051 64.4382 839.377 57.1076C867.493 52.5625 891.382 54.7358 917.459 61.6306C950.272 70.3239 984.342 77.5064 1019.32 83.104C1079.45 92.7071 1152.45 101.665 1215.2 96.4083C1295.06 89.7506 1367.37 66.9148 1446.61 58.5748" stroke="url(#paint41_linear_193_829)" stroke-miterlimit="10"/>
<path d="M0.672791 52.0219C67.2771 53.3292 125.517 76.7607 193.537 68.6137C251.426 61.6748 299.735 40.6592 357.111 32.9646C416.355 25.0162 484.556 36.7098 542.203 44.5479C598.375 52.204 653.442 62.6731 709.804 69.7721C759.167 75.994 795.336 60.9467 841.014 54.46C869.331 50.4279 893.41 52.8052 919.497 59.6504C952.063 68.1699 985.95 75.072 1020.75 80.2743C1081.27 89.3204 1153.37 96.8771 1216.02 91.6315C1295.27 85.0125 1368.15 64.0962 1446.63 55.519" stroke="url(#paint42_linear_193_829)" stroke-miterlimit="10"/>
<path d="M0.692871 48.4918C67.7792 49.8763 126.13 73.5339 194.632 65.5414C252.51 58.7955 301.241 38.1991 358.657 30.8244C417.851 23.229 485.54 34.8565 543.107 42.5622C598.857 50.0252 653.883 60.0972 710.095 66.3908C759.167 71.9067 796.762 57.6702 842.781 52.0495C871.309 48.5469 895.569 51.178 921.696 57.9295C954.014 66.2579 987.714 72.8613 1022.33 77.6488C1083.22 86.0991 1154.31 92.2052 1216.88 86.9541C1295.51 80.3626 1368.91 61.4431 1446.65 52.6673" stroke="url(#paint43_linear_193_829)" stroke-miterlimit="10"/>
<path d="M0.712952 45.0774C68.2813 46.5336 126.732 70.4174 195.807 62.6014C253.635 56.0541 302.757 35.8935 360.274 28.8552C419.387 21.6184 486.554 33.1631 544.031 40.6978C599.379 47.9512 654.335 57.5985 710.366 63.0868C759.187 67.8691 798.238 54.4931 844.609 49.7108C873.337 46.7488 897.768 49.6391 923.986 56.3298C956.052 64.4511 989.556 70.7357 1023.97 75.0839C1085.22 82.8944 1155.23 87.4836 1217.77 82.2545C1295.78 75.7403 1369.64 58.8175 1446.67 49.8652" stroke="url(#paint44_linear_193_829)" stroke-miterlimit="10"/>
<path d="M0.732971 41.7679C68.7732 43.3013 127.375 67.4113 196.981 59.7828C254.82 53.445 304.354 33.7313 361.941 27.0405C420.974 20.1842 487.608 31.6132 545.045 38.9714C600.001 46.0151 654.877 55.1991 710.727 59.8876C759.338 63.9638 799.875 51.4593 846.577 47.5596C875.516 45.1381 900.117 48.3042 926.436 54.8957C958.253 62.807 991.56 68.767 1025.76 72.6679C1087.42 79.8 1156.23 82.8227 1218.75 77.6322C1296.07 71.2007 1370.37 56.3188 1446.69 47.2176" stroke="url(#paint45_linear_193_829)" stroke-miterlimit="10"/>
<path d="M0.753052 38.5632C69.2853 40.1794 128.037 64.4879 198.216 57.0911C256.055 50.9739 306 31.707 363.658 25.3802C422.611 18.9266 488.703 30.2121 546.069 37.3828C600.654 44.206 655.43 52.899 711.039 56.7932C759.478 60.1855 801.491 48.569 848.495 45.5518C877.615 43.6819 902.407 47.1349 928.826 53.6436C960.395 61.3298 993.502 66.9487 1027.46 70.3843C1089.52 76.7993 1157.12 78.2279 1219.63 73.0761C1296.39 66.7549 1370.99 53.9305 1446.64 44.6969" stroke="url(#paint46_linear_193_829)" stroke-miterlimit="10"/>
<path d="M0.773193 35.4743C69.8075 37.1732 128.73 61.7299 199.472 54.5262C257.3 48.6297 307.687 29.826 365.415 23.8909C424.268 17.8235 489.807 28.9821 547.164 35.9542C601.387 42.5733 656.042 50.7312 711.42 53.8367C759.769 56.5505 803.218 45.8387 850.584 43.7095C879.914 42.3912 904.807 46.1475 931.477 52.568C962.803 60.0253 995.707 65.2954 1029.42 68.2552C1171 81.1017 1309.74 59.4298 1446.78 42.3306" stroke="url(#paint47_linear_193_829)" stroke-miterlimit="10"/>
<path d="M0.793213 32.4847C70.3397 34.2773 129.433 59.0492 200.757 52.0716C258.585 46.4123 309.404 28.0775 367.202 22.4899C425.954 16.8085 490.942 27.8293 548.178 34.5973C602.09 40.9902 656.584 48.6187 711.711 50.9188C760.051 52.9541 804.865 43.1965 852.582 41.9279C882.083 41.1557 907.187 45.2374 934.007 51.5641C964.975 58.9168 997.86 63.6053 1031.25 66.1978C1169.23 76.9151 1313.14 57.0193 1446.75 40.0359" stroke="url(#paint48_linear_193_829)" stroke-miterlimit="10"/>
<path d="M0.813354 29.6164C70.8719 31.5029 130.146 56.4898 202.052 49.7439C259.89 44.2997 311.132 26.4558 369 21.2433C427.651 15.9646 492.077 26.8364 549.252 33.3783C602.873 39.5285 657.177 46.6164 712.053 48.1664C760.482 49.5343 806.562 40.6978 854.64 40.3283C884.312 40.1021 909.576 44.5038 936.608 50.7533C967.375 57.8633 1000.04 62.1491 1033.15 64.2783C1096.22 68.3324 1160.17 64.8795 1222.72 59.9207C1297.77 53.9691 1372.92 47.4383 1446.77 37.8572" stroke="url(#paint49_linear_193_829)" stroke-miterlimit="10"/>
<path d="M0.833435 26.864C70.8016 28.8111 129.995 53.8422 201.831 47.6754C259.439 42.7111 310.78 25.5622 368.197 20.3608C426.236 15.1041 489.366 25.5347 546.039 31.8338C600.825 37.9013 656.323 44.6803 712.404 45.5298C762.189 46.2854 810.699 37.9344 860.374 38.9107C890.357 39.5009 915.35 44.8844 942.833 50.8636C971.381 57.0745 1001.53 60.6322 1032.01 62.3146C1096.9 65.8944 1161.25 60.6157 1225.37 55.6349C1299.37 49.8873 1374.04 45.4636 1446.82 35.8549" stroke="url(#paint50_linear_193_829)" stroke-miterlimit="10"/>
<path d="M0.843445 24.2329C71.2936 26.2738 130.728 51.5145 203.097 45.5849C260.714 40.8633 312.467 24.1667 369.974 19.3458C427.892 14.5139 490.52 24.7955 547.113 30.8906C601.638 36.7705 656.926 43.0255 712.716 43.0255C762.792 43.0255 812.376 35.7832 862.462 37.631C892.486 38.7342 917.69 44.4266 945.384 50.2789C973.741 56.2692 1003.68 59.4519 1033.91 60.7095C1099.01 63.4178 1162.25 56.4512 1226.35 51.6083C1299.87 46.0538 1374.53 43.6875 1446.8 33.9574" stroke="url(#paint51_linear_193_829)" stroke-miterlimit="10"/>
<path d="M0.863525 21.7287C71.8459 23.8634 131.401 49.3081 204.382 43.6102C262.019 39.1093 314.174 22.8815 371.761 18.4357C429.559 13.9623 491.695 24.1722 548.258 30.0687C602.481 35.7335 657.558 41.4259 713.057 40.6206C763.495 39.887 814.053 33.7313 864.561 36.4396C894.625 38.0557 920.029 44.0515 947.904 49.777C976.02 55.5521 1005.82 58.3597 1035.77 59.1926C1101.03 61.0184 1163.23 52.397 1227.32 47.6865C1300.38 42.314 1374.92 42.0161 1446.77 32.1648" stroke="url(#paint52_linear_193_829)" stroke-miterlimit="10"/>
<path d="M0.883667 19.3514C72.3581 21.5577 132.164 47.2176 205.657 41.7569C263.305 37.471 315.861 21.6846 373.539 17.6359C431.216 13.5873 492.85 23.6593 549.262 29.3517C603.355 34.8124 658.171 39.9697 713.368 38.3536C764.248 36.8643 815.67 31.8117 866.599 35.3695C896.723 37.471 922.309 43.7922 950.445 49.3854C978.581 54.9785 1008 57.3834 1037.66 57.8026C1102.93 58.7348 1164.31 48.4973 1228.32 43.9191C1300.96 38.7231 1375.45 40.4882 1446.81 30.4934" stroke="url(#paint53_linear_193_829)" stroke-miterlimit="10"/>
<path d="M0.893616 17.1009C72.86 19.4175 132.877 45.2319 206.892 40.0249C264.57 35.9487 317.508 20.6421 375.266 16.9354C432.783 13.2453 494.035 23.2511 550.347 28.7504C604.279 34.0126 658.793 38.6294 713.72 36.2189C765.101 33.9629 817.286 30.0081 868.668 34.3987C898.702 36.9691 924.588 43.6213 952.925 49.0875C980.74 54.4489 1010.16 56.5119 1039.5 56.5284C1104.77 56.5726 1165.36 44.7686 1229.28 40.3117C1301.58 35.2702 1375.89 39.0927 1446.81 28.938" stroke="url(#paint54_linear_193_829)" stroke-miterlimit="10"/>
<path d="M0.903748 14.9883C73.3522 17.3822 133.55 43.4116 208.097 38.4032C265.805 34.5421 319.124 19.6492 376.953 16.3397C434.409 13.0301 495.049 22.9587 551.371 28.265C605.193 33.3176 659.436 37.4159 714.041 34.2222C765.975 31.1884 818.833 28.3312 870.686 33.5382C900.71 36.5444 926.817 43.533 955.365 48.8724C983.049 54.0463 1012.22 55.7397 1041.29 55.3646C1106.46 54.5317 1166.41 41.2163 1230.25 36.8643C1302.13 31.9662 1376.25 37.8461 1446.84 27.4873" stroke="url(#paint55_linear_193_829)" stroke-miterlimit="10"/>
<path d="M0.923828 13.0081C73.8241 15.4847 134.233 41.6907 209.272 36.9029C267.01 33.2128 320.731 18.7998 378.589 15.8046C435.926 12.8371 496.073 22.7491 552.365 27.8569C606.086 32.7163 660.059 36.3017 714.352 32.3413C766.869 28.5132 820.379 26.7371 872.594 32.7439C902.588 36.1914 928.916 43.5109 957.715 48.74C985.228 53.7043 1014.25 55.0722 1043.07 54.3166C1108.06 52.6232 1167.51 37.8627 1231.23 33.6044C1302.78 28.8221 1376.67 36.7429 1446.92 26.18" stroke="url(#paint56_linear_193_829)" stroke-miterlimit="10"/>
<path d="M0.933899 11.1658C74.2358 13.7196 134.866 40.1131 210.387 35.5184C268.155 31.9993 322.177 18.022 380.166 15.3578C437.402 12.7323 497.108 22.6278 553.309 27.559C606.96 32.2751 660.661 35.3198 714.634 30.6093C767.762 25.9759 821.755 25.2589 874.422 32.0434C904.355 35.9045 930.934 43.5551 959.924 48.6628C987.297 53.4837 1016.16 54.482 1044.67 53.3678C1109.44 50.836 1168.47 34.7131 1232.07 30.51C1303.37 25.816 1376.96 35.7666 1446.9 24.95" stroke="url(#paint57_linear_193_829)" stroke-miterlimit="10"/>
<path d="M0.943787 9.47239C74.7076 12.0869 135.498 38.6569 211.441 34.2442C269.259 30.8906 323.613 17.327 381.662 14.9883C438.807 12.6882 498.051 22.5837 554.203 27.3604C607.803 31.9221 661.243 34.4594 714.915 29.0152C768.586 23.571 823.11 23.8909 876.189 31.4256C906.052 35.6673 932.892 43.5606 962.043 48.6462C989.154 53.3844 1018.05 53.9801 1046.22 52.5073C1110.72 49.1978 1169.43 31.7731 1232.9 27.6252C1303.88 22.9863 1377.26 34.9503 1446.9 23.8413" stroke="url(#paint58_linear_193_829)" stroke-miterlimit="10"/>
<path d="M1.00421 7.89486C75.1697 10.5645 136.091 37.3111 212.485 33.0694C270.283 29.8757 324.959 16.7203 383.078 14.6849C440.093 12.6882 498.955 22.6168 555.046 27.2556C608.617 31.6683 661.806 33.7258 715.166 27.5645C769.53 21.2929 824.375 22.6002 877.836 30.874C907.638 35.4743 934.71 43.6654 964.031 48.6793C991.032 53.2961 1019.78 53.5609 1047.66 51.7903C1078.07 49.8542 1107.72 45.4194 1136.92 40.4993C1168.43 35.1985 1200.86 27.1122 1233.68 24.972C1304.42 20.3552 1377.55 34.3049 1446.91 22.865" stroke="url(#paint59_linear_193_829)" stroke-miterlimit="10"/>
<path d="M1.00421 6.51589C75.5312 9.22971 136.563 36.1472 213.399 32.0489C271.247 28.96 326.214 16.1687 384.403 14.4367C441.328 12.7213 499.769 22.7105 555.809 27.2336C609.38 31.547 662.358 33.119 715.407 26.2628C770.363 19.1583 825.571 21.4143 879.422 30.4052C909.095 35.3695 936.397 43.8088 965.868 48.751C992.759 53.2575 1021.38 53.2244 1048.98 51.1504C1079.34 48.8779 1108.82 44.057 1137.85 38.8224C1169.13 33.1852 1201.6 24.6797 1234.41 22.523C1304.93 17.8952 1377.84 33.803 1446.92 21.9714" stroke="url(#paint60_linear_193_829)" stroke-miterlimit="10"/>
<path d="M1.00421 5.26378C75.8726 8.02172 137.065 35.0992 214.232 31.1223C272.121 28.1326 327.348 15.7274 385.588 14.2436C442.432 12.793 500.481 22.8981 556.482 27.3053C610.063 31.5139 662.85 32.6446 715.587 25.0989C771.176 17.1726 826.635 20.3166 880.868 29.997C910.43 35.2702 937.933 43.9688 967.555 48.8558C994.336 53.2685 1022.78 52.9596 1050.19 50.6154C1080.47 48.0229 1109.8 42.838 1138.68 37.3166C1169.75 31.376 1202.26 22.4954 1235.08 20.3056C1305.37 15.6171 1378.1 33.461 1446.95 21.2047" stroke="url(#paint61_linear_193_829)" stroke-miterlimit="10"/>
<path d="M1.00421 4.16611C76.1839 6.92405 137.476 34.1891 214.976 30.3059C272.934 27.399 328.443 15.3358 386.743 14.0947C443.527 12.8812 501.214 23.1352 557.155 27.4542C610.756 31.5856 663.392 32.2971 715.808 24.106C771.97 15.3303 827.569 19.3017 882.184 29.6219C911.645 35.1985 939.329 44.1232 969.072 48.9661C995.761 53.3071 1024.11 52.7556 1051.25 50.1631C1081.49 47.2728 1110.66 41.7569 1139.41 35.9707C1170.31 29.7433 1202.84 20.5593 1235.7 18.3199C1305.85 13.5321 1378.4 33.2679 1446.95 20.5262" stroke="url(#paint62_linear_193_829)" stroke-miterlimit="10"/>
<path d="M1.00421 3.22841C76.4751 5.98636 137.828 33.4224 215.628 29.5999C273.597 26.7537 329.357 15.0103 387.707 13.9623C444.431 12.964 501.737 23.4 557.677 27.6583C611.308 31.74 663.844 32.071 715.959 23.2456C772.703 13.6314 828.332 18.353 883.349 29.313C912.679 35.1599 940.524 44.2887 970.377 49.0985C996.987 53.3899 1025.19 52.6287 1052.14 49.8156C1082.35 46.655 1111.39 40.8412 1140.02 34.8124C1170.77 28.3312 1203.28 18.9101 1236.22 16.61C1306.22 11.6732 1378.68 33.2679 1446.96 19.9636" stroke="url(#paint63_linear_193_829)" stroke-miterlimit="10"/>
<path d="M1.00421 2.44517C76.1035 5.20311 137.255 32.6391 214.604 29.0814C275.726 26.2738 334.809 13.5928 396.483 13.852C449.21 14.0727 502.118 23.5876 554.203 27.6804C609.541 32.0269 662.509 31.9055 716.1 22.6002C775.524 12.3076 831.204 17.7187 888.48 29.9584C914.155 35.4412 938.616 42.9207 964.483 48.056C991.855 53.4892 1021.91 52.9597 1050.08 49.9425C1082.04 46.5226 1112.63 40.0139 1142.78 33.3948C1173.16 26.6985 1205.47 17.2719 1238.23 15.0655C1307.52 10.4267 1379.57 33.3286 1446.95 19.5168" stroke="url(#paint64_linear_193_829)" stroke-miterlimit="10"/>
<path d="M1.00421 1.82737C76.3144 4.54671 137.466 32.1648 215.026 28.6015C276.168 25.7884 335.522 13.4052 397.176 13.8189C449.863 14.1774 502.5 23.9571 554.554 28.0554C609.932 32.413 662.89 31.9827 716.22 22.0707C776.247 10.9065 831.635 16.9519 889.383 29.7929C914.939 35.4743 939.47 43.02 965.407 48.1608C992.719 53.5995 1022.64 52.9596 1050.65 49.7715C1082.59 46.1365 1113.06 39.3464 1143.12 32.5509C1173.46 25.6891 1205.76 16.1576 1238.6 13.841C1307.76 8.99803 1379.89 33.6154 1446.96 19.1362" stroke="url(#paint65_linear_193_829)" stroke-miterlimit="10"/>
<path d="M1.00421 1.38611C76.465 4.06131 137.567 31.8448 215.347 28.2264C276.499 25.3802 335.984 13.2618 397.718 13.8079C450.385 14.2712 502.771 24.3653 554.805 28.4967C610.214 32.9094 663.252 32.2089 716.24 21.7011C776.85 9.68751 831.796 16.2404 890.036 29.6219C915.531 35.4743 940.122 43.0972 966.079 48.2987C993.372 53.765 1023.03 53.0755 1051.02 49.7384C1115.68 42.0161 1173.6 17.84 1238.88 12.964C1307.92 7.8066 1380.25 34.0843 1446.96 18.877" stroke="url(#paint66_linear_193_829)" stroke-miterlimit="10"/>
<path d="M1.00421 1.10553C76.5855 3.72558 137.667 31.6746 215.538 27.9679C276.7 25.05 336.386 13.1688 398.09 13.8031C450.767 14.3547 502.922 24.8018 554.936 29.0049C610.364 33.4838 663.583 32.5792 716.27 21.5033C777.412 8.64575 831.746 15.5792 890.538 29.5013C915.822 35.475 940.474 43.3903 966.491 48.3877C994.125 53.6885 1022.89 53.2582 1051.18 49.7722C1115.95 41.7852 1173.55 17.587 1239.06 12.3579C1308.01 6.84206 1380.65 34.7249 1446.92 18.7122" stroke="url(#paint67_linear_193_829)" stroke-miterlimit="10"/>
<path d="M1.00421 1C76.6658 3.54282 137.637 31.6573 215.588 27.8127C276.75 24.7955 336.516 13.1129 398.341 13.7969C451.028 14.3815 502.982 25.2699 554.986 29.5723C610.414 34.156 663.915 33.1025 716.29 21.4695C777.904 7.77351 831.475 14.9552 890.829 29.4068C945.053 42.6008 989.727 57.6206 1051.13 49.8873C1116.07 41.7072 1173.4 17.7131 1239.14 12.0649C1308.01 6.14632 1381.03 35.535 1447 18.6839" stroke="url(#paint68_linear_193_829)" stroke-miterlimit="10"/>
<defs>
<linearGradient id="paint0_linear_193_829" x1="1.04245e+06" y1="395.288" x2="1.04245e+06" y2="321.068" gradientUnits="userSpaceOnUse">
<stop stop-color="#592CB8"/>
<stop offset="1" stop-color="#0B60B0"/>
</linearGradient>
<linearGradient id="paint1_linear_193_829" x1="1.04242e+06" y1="633.808" x2="1.04242e+06" y2="376.949" gradientUnits="userSpaceOnUse">
<stop stop-color="#592CB8"/>
<stop offset="1" stop-color="#0B60B0"/>
</linearGradient>
<linearGradient id="paint2_linear_193_829" x1="1.04245e+06" y1="921.363" x2="1.04245e+06" y2="447.009" gradientUnits="userSpaceOnUse">
<stop stop-color="#592CB8"/>
<stop offset="1" stop-color="#0B60B0"/>
</linearGradient>
<linearGradient id="paint3_linear_193_829" x1="1.04245e+06" y1="1350.5" x2="1.04245e+06" y2="555.437" gradientUnits="userSpaceOnUse">
<stop stop-color="#592CB8"/>
<stop offset="1" stop-color="#0B60B0"/>
</linearGradient>
<linearGradient id="paint4_linear_193_829" x1="1.04245e+06" y1="2063.15" x2="1.04245e+06" y2="739.228" gradientUnits="userSpaceOnUse">
<stop stop-color="#592CB8"/>
<stop offset="1" stop-color="#0B60B0"/>
</linearGradient>
<linearGradient id="paint5_linear_193_829" x1="1.04245e+06" y1="2846.95" x2="1.04245e+06" y2="942.393" gradientUnits="userSpaceOnUse">
<stop stop-color="#592CB8"/>
<stop offset="1" stop-color="#0B60B0"/>
</linearGradient>
<linearGradient id="paint6_linear_193_829" x1="1.04245e+06" y1="3800.89" x2="1.04245e+06" y2="1190.78" gradientUnits="userSpaceOnUse">
<stop stop-color="#592CB8"/>
<stop offset="1" stop-color="#0B60B0"/>
</linearGradient>
<linearGradient id="paint7_linear_193_829" x1="1.04243e+06" y1="4803.93" x2="1.04243e+06" y2="1452.4" gradientUnits="userSpaceOnUse">
<stop stop-color="#592CB8"/>
<stop offset="1" stop-color="#0B60B0"/>
</linearGradient>
<linearGradient id="paint8_linear_193_829" x1="1.04245e+06" y1="5809.97" x2="1.04245e+06" y2="1714.96" gradientUnits="userSpaceOnUse">
<stop stop-color="#592CB8"/>
<stop offset="1" stop-color="#0B60B0"/>
</linearGradient>
<linearGradient id="paint9_linear_193_829" x1="1.04243e+06" y1="6766.28" x2="1.04243e+06" y2="1964.38" gradientUnits="userSpaceOnUse">
<stop stop-color="#592CB8"/>
<stop offset="1" stop-color="#0B60B0"/>
</linearGradient>
<linearGradient id="paint10_linear_193_829" x1="1.04245e+06" y1="7714.92" x2="1.04245e+06" y2="2211.56" gradientUnits="userSpaceOnUse">
<stop stop-color="#592CB8"/>
<stop offset="1" stop-color="#0B60B0"/>
</linearGradient>
<linearGradient id="paint11_linear_193_829" x1="1.04245e+06" y1="8443.44" x2="1.04245e+06" y2="2400.5" gradientUnits="userSpaceOnUse">
<stop stop-color="#592CB8"/>
<stop offset="1" stop-color="#0B60B0"/>
</linearGradient>
<linearGradient id="paint12_linear_193_829" x1="1.04245e+06" y1="8983.04" x2="1.04245e+06" y2="2539.24" gradientUnits="userSpaceOnUse">
<stop stop-color="#592CB8"/>
<stop offset="1" stop-color="#0B60B0"/>
</linearGradient>
<linearGradient id="paint13_linear_193_829" x1="1.04248e+06" y1="9270.85" x2="1.04248e+06" y2="2610.99" gradientUnits="userSpaceOnUse">
<stop stop-color="#592CB8"/>
<stop offset="1" stop-color="#0B60B0"/>
</linearGradient>
<linearGradient id="paint14_linear_193_829" x1="1.04245e+06" y1="9398.3" x2="1.04245e+06" y2="2639.79" gradientUnits="userSpaceOnUse">
<stop stop-color="#592CB8"/>
<stop offset="1" stop-color="#0B60B0"/>
</linearGradient>
<linearGradient id="paint15_linear_193_829" x1="1.04243e+06" y1="9527.5" x2="1.04243e+06" y2="2669.05" gradientUnits="userSpaceOnUse">
<stop stop-color="#592CB8"/>
<stop offset="1" stop-color="#0B60B0"/>
</linearGradient>
<linearGradient id="paint16_linear_193_829" x1="1.04243e+06" y1="9600.37" x2="1.04243e+06" y2="2683.68" gradientUnits="userSpaceOnUse">
<stop stop-color="#592CB8"/>
<stop offset="1" stop-color="#0B60B0"/>
</linearGradient>
<linearGradient id="paint17_linear_193_829" x1="1.04247e+06" y1="9620.93" x2="1.04247e+06" y2="2684.68" gradientUnits="userSpaceOnUse">
<stop stop-color="#592CB8"/>
<stop offset="1" stop-color="#0B60B0"/>
</linearGradient>
<linearGradient id="paint18_linear_193_829" x1="1.04245e+06" y1="9595.69" x2="1.04245e+06" y2="2673.79" gradientUnits="userSpaceOnUse">
<stop stop-color="#592CB8"/>
<stop offset="1" stop-color="#0B60B0"/>
</linearGradient>
<linearGradient id="paint19_linear_193_829" x1="1.04245e+06" y1="9528.96" x2="1.04245e+06" y2="2652.12" gradientUnits="userSpaceOnUse">
<stop stop-color="#592CB8"/>
<stop offset="1" stop-color="#0B60B0"/>
</linearGradient>
<linearGradient id="paint20_linear_193_829" x1="1.04245e+06" y1="9376.49" x2="1.04245e+06" y2="2608.09" gradientUnits="userSpaceOnUse">
<stop stop-color="#592CB8"/>
<stop offset="1" stop-color="#0B60B0"/>
</linearGradient>
<linearGradient id="paint21_linear_193_829" x1="1.04246e+06" y1="9274.31" x2="1.04246e+06" y2="2577.37" gradientUnits="userSpaceOnUse">
<stop stop-color="#592CB8"/>
<stop offset="1" stop-color="#0B60B0"/>
</linearGradient>
<linearGradient id="paint22_linear_193_829" x1="1.04242e+06" y1="9150.95" x2="1.04242e+06" y2="2541.17" gradientUnits="userSpaceOnUse">
<stop stop-color="#592CB8"/>
<stop offset="1" stop-color="#0B60B0"/>
</linearGradient>
<linearGradient id="paint23_linear_193_829" x1="1.04245e+06" y1="9020.02" x2="1.04245e+06" y2="2503.12" gradientUnits="userSpaceOnUse">
<stop stop-color="#592CB8"/>
<stop offset="1" stop-color="#0B60B0"/>
</linearGradient>
<linearGradient id="paint24_linear_193_829" x1="1.04248e+06" y1="8881.59" x2="1.04248e+06" y2="2463.17" gradientUnits="userSpaceOnUse">
<stop stop-color="#592CB8"/>
<stop offset="1" stop-color="#0B60B0"/>
</linearGradient>
<linearGradient id="paint25_linear_193_829" x1="1.04243e+06" y1="8741.33" x2="1.04243e+06" y2="2422.81" gradientUnits="userSpaceOnUse">
<stop stop-color="#592CB8"/>
<stop offset="1" stop-color="#0B60B0"/>
</linearGradient>
<linearGradient id="paint26_linear_193_829" x1="1.04245e+06" y1="8558.72" x2="1.04245e+06" y2="2371.39" gradientUnits="userSpaceOnUse">
<stop stop-color="#592CB8"/>
<stop offset="1" stop-color="#0B60B0"/>
</linearGradient>
<linearGradient id="paint27_linear_193_829" x1="1.04242e+06" y1="8428.02" x2="1.04242e+06" y2="2333.68" gradientUnits="userSpaceOnUse">
<stop stop-color="#592CB8"/>
<stop offset="1" stop-color="#0B60B0"/>
</linearGradient>
<linearGradient id="paint28_linear_193_829" x1="1.04243e+06" y1="8311.54" x2="1.04243e+06" y2="2299.74" gradientUnits="userSpaceOnUse">
<stop stop-color="#592CB8"/>
<stop offset="1" stop-color="#0B60B0"/>
</linearGradient>
<linearGradient id="paint29_linear_193_829" x1="1.04242e+06" y1="8220" x2="1.04242e+06" y2="2272.43" gradientUnits="userSpaceOnUse">
<stop stop-color="#592CB8"/>
<stop offset="1" stop-color="#0B60B0"/>
</linearGradient>
<linearGradient id="paint30_linear_193_829" x1="1.04248e+06" y1="8141.03" x2="1.04248e+06" y2="2248.39" gradientUnits="userSpaceOnUse">
<stop stop-color="#592CB8"/>
<stop offset="1" stop-color="#0B60B0"/>
</linearGradient>
<linearGradient id="paint31_linear_193_829" x1="1.04245e+06" y1="8101.85" x2="1.04245e+06" y2="2234.85" gradientUnits="userSpaceOnUse">
<stop stop-color="#592CB8"/>
<stop offset="1" stop-color="#0B60B0"/>
</linearGradient>
<linearGradient id="paint32_linear_193_829" x1="1.04245e+06" y1="8083.06" x2="1.04245e+06" y2="2226.66" gradientUnits="userSpaceOnUse">
<stop stop-color="#592CB8"/>
<stop offset="1" stop-color="#0B60B0"/>
</linearGradient>
<linearGradient id="paint33_linear_193_829" x1="1.04247e+06" y1="8031.34" x2="1.04247e+06" y2="2209.75" gradientUnits="userSpaceOnUse">
<stop stop-color="#592CB8"/>
<stop offset="1" stop-color="#0B60B0"/>
</linearGradient>
<linearGradient id="paint34_linear_193_829" x1="1.04245e+06" y1="7953.61" x2="1.04245e+06" y2="2185.99" gradientUnits="userSpaceOnUse">
<stop stop-color="#592CB8"/>
<stop offset="1" stop-color="#0B60B0"/>
</linearGradient>
<linearGradient id="paint35_linear_193_829" x1="1.04247e+06" y1="7840.22" x2="1.04247e+06" y2="2152.78" gradientUnits="userSpaceOnUse">
<stop stop-color="#592CB8"/>
<stop offset="1" stop-color="#0B60B0"/>
</linearGradient>
<linearGradient id="paint36_linear_193_829" x1="1.04245e+06" y1="7704.4" x2="1.04245e+06" y2="2113.69" gradientUnits="userSpaceOnUse">
<stop stop-color="#592CB8"/>
<stop offset="1" stop-color="#0B60B0"/>
</linearGradient>
<linearGradient id="paint37_linear_193_829" x1="1.04247e+06" y1="7542.03" x2="1.04247e+06" y2="2067.57" gradientUnits="userSpaceOnUse">
<stop stop-color="#592CB8"/>
<stop offset="1" stop-color="#0B60B0"/>
</linearGradient>
<linearGradient id="paint38_linear_193_829" x1="1.04244e+06" y1="7361.01" x2="1.04244e+06" y2="2016.58" gradientUnits="userSpaceOnUse">
<stop stop-color="#592CB8"/>
<stop offset="1" stop-color="#0B60B0"/>
</linearGradient>
<linearGradient id="paint39_linear_193_829" x1="1.04245e+06" y1="7156.03" x2="1.04245e+06" y2="1959.26" gradientUnits="userSpaceOnUse">
<stop stop-color="#592CB8"/>
<stop offset="1" stop-color="#0B60B0"/>
</linearGradient>
<linearGradient id="paint40_linear_193_829" x1="1.04243e+06" y1="6928.53" x2="1.04243e+06" y2="1896.01" gradientUnits="userSpaceOnUse">
<stop stop-color="#592CB8"/>
<stop offset="1" stop-color="#0B60B0"/>
</linearGradient>
<linearGradient id="paint41_linear_193_829" x1="1.04245e+06" y1="6693.88" x2="1.04245e+06" y2="1830.97" gradientUnits="userSpaceOnUse">
<stop stop-color="#592CB8"/>
<stop offset="1" stop-color="#0B60B0"/>
</linearGradient>
<linearGradient id="paint42_linear_193_829" x1="1.04245e+06" y1="6440.29" x2="1.04245e+06" y2="1760.95" gradientUnits="userSpaceOnUse">
<stop stop-color="#592CB8"/>
<stop offset="1" stop-color="#0B60B0"/>
</linearGradient>
<linearGradient id="paint43_linear_193_829" x1="1.04245e+06" y1="6184.74" x2="1.04245e+06" y2="1690.52" gradientUnits="userSpaceOnUse">
<stop stop-color="#592CB8"/>
<stop offset="1" stop-color="#0B60B0"/>
</linearGradient>
<linearGradient id="paint44_linear_193_829" x1="1.04245e+06" y1="5915.83" x2="1.04245e+06" y2="1616.61" gradientUnits="userSpaceOnUse">
<stop stop-color="#592CB8"/>
<stop offset="1" stop-color="#0B60B0"/>
</linearGradient>
<linearGradient id="paint45_linear_193_829" x1="1.04245e+06" y1="5648.14" x2="1.04245e+06" y2="1543.15" gradientUnits="userSpaceOnUse">
<stop stop-color="#592CB8"/>
<stop offset="1" stop-color="#0B60B0"/>
</linearGradient>
<linearGradient id="paint46_linear_193_829" x1="1.0424e+06" y1="5386.08" x2="1.0424e+06" y2="1471.32" gradientUnits="userSpaceOnUse">
<stop stop-color="#592CB8"/>
<stop offset="1" stop-color="#0B60B0"/>
</linearGradient>
<linearGradient id="paint47_linear_193_829" x1="1.04248e+06" y1="5105.41" x2="1.04248e+06" y2="1394.58" gradientUnits="userSpaceOnUse">
<stop stop-color="#592CB8"/>
<stop offset="1" stop-color="#0B60B0"/>
</linearGradient>
<linearGradient id="paint48_linear_193_829" x1="1.04245e+06" y1="4932.37" x2="1.04245e+06" y2="1346.96" gradientUnits="userSpaceOnUse">
<stop stop-color="#592CB8"/>
<stop offset="1" stop-color="#0B60B0"/>
</linearGradient>
<linearGradient id="paint49_linear_193_829" x1="1.04245e+06" y1="4719.13" x2="1.04245e+06" y2="1288.61" gradientUnits="userSpaceOnUse">
<stop stop-color="#592CB8"/>
<stop offset="1" stop-color="#0B60B0"/>
</linearGradient>
<linearGradient id="paint50_linear_193_829" x1="1.04247e+06" y1="4549.63" x2="1.04247e+06" y2="1242.18" gradientUnits="userSpaceOnUse">
<stop stop-color="#592CB8"/>
<stop offset="1" stop-color="#0B60B0"/>
</linearGradient>
<linearGradient id="paint51_linear_193_829" x1="1.04245e+06" y1="4412.51" x2="1.04245e+06" y2="1204.55" gradientUnits="userSpaceOnUse">
<stop stop-color="#592CB8"/>
<stop offset="1" stop-color="#0B60B0"/>
</linearGradient>
<linearGradient id="paint52_linear_193_829" x1="1.04241e+06" y1="4298.51" x2="1.04241e+06" y2="1173.21" gradientUnits="userSpaceOnUse">
<stop stop-color="#592CB8"/>
<stop offset="1" stop-color="#0B60B0"/>
</linearGradient>
<linearGradient id="paint53_linear_193_829" x1="1.04243e+06" y1="4201.54" x2="1.04243e+06" y2="1146.57" gradientUnits="userSpaceOnUse">
<stop stop-color="#592CB8"/>
<stop offset="1" stop-color="#0B60B0"/>
</linearGradient>
<linearGradient id="paint54_linear_193_829" x1="1.04242e+06" y1="4122.66" x2="1.04242e+06" y2="1124.86" gradientUnits="userSpaceOnUse">
<stop stop-color="#592CB8"/>
<stop offset="1" stop-color="#0B60B0"/>
</linearGradient>
<linearGradient id="paint55_linear_193_829" x1="1.04243e+06" y1="4125.13" x2="1.04243e+06" y2="1124.69" gradientUnits="userSpaceOnUse">
<stop stop-color="#592CB8"/>
<stop offset="1" stop-color="#0B60B0"/>
</linearGradient>
<linearGradient id="paint56_linear_193_829" x1="1.04248e+06" y1="4232.57" x2="1.04248e+06" y2="1152.25" gradientUnits="userSpaceOnUse">
<stop stop-color="#592CB8"/>
<stop offset="1" stop-color="#0B60B0"/>
</linearGradient>
<linearGradient id="paint57_linear_193_829" x1="1.04246e+06" y1="4343.89" x2="1.04246e+06" y2="1180.96" gradientUnits="userSpaceOnUse">
<stop stop-color="#592CB8"/>
<stop offset="1" stop-color="#0B60B0"/>
</linearGradient>
<linearGradient id="paint58_linear_193_829" x1="1.04245e+06" y1="4457.18" x2="1.04245e+06" y2="1210.31" gradientUnits="userSpaceOnUse">
<stop stop-color="#592CB8"/>
<stop offset="1" stop-color="#0B60B0"/>
</linearGradient>
<linearGradient id="paint59_linear_193_829" x1="1.04241e+06" y1="4573.72" x2="1.04241e+06" y2="1240.63" gradientUnits="userSpaceOnUse">
<stop stop-color="#592CB8"/>
<stop offset="1" stop-color="#0B60B0"/>
</linearGradient>
<linearGradient id="paint60_linear_193_829" x1="1.04242e+06" y1="4681.73" x2="1.04242e+06" y2="1268.78" gradientUnits="userSpaceOnUse">
<stop stop-color="#592CB8"/>
<stop offset="1" stop-color="#0B60B0"/>
</linearGradient>
<linearGradient id="paint61_linear_193_829" x1="1.04244e+06" y1="4787.34" x2="1.04244e+06" y2="1296.38" gradientUnits="userSpaceOnUse">
<stop stop-color="#592CB8"/>
<stop offset="1" stop-color="#0B60B0"/>
</linearGradient>
<linearGradient id="paint62_linear_193_829" x1="1.04244e+06" y1="4884.75" x2="1.04244e+06" y2="1321.88" gradientUnits="userSpaceOnUse">
<stop stop-color="#592CB8"/>
<stop offset="1" stop-color="#0B60B0"/>
</linearGradient>
<linearGradient id="paint63_linear_193_829" x1="1.04245e+06" y1="4974.16" x2="1.04245e+06" y2="1345.34" gradientUnits="userSpaceOnUse">
<stop stop-color="#592CB8"/>
<stop offset="1" stop-color="#0B60B0"/>
</linearGradient>
<linearGradient id="paint64_linear_193_829" x1="1.04244e+06" y1="5059.88" x2="1.04244e+06" y2="1367.91" gradientUnits="userSpaceOnUse">
<stop stop-color="#592CB8"/>
<stop offset="1" stop-color="#0B60B0"/>
</linearGradient>
<linearGradient id="paint65_linear_193_829" x1="1.04245e+06" y1="5124.38" x2="1.04245e+06" y2="1384.87" gradientUnits="userSpaceOnUse">
<stop stop-color="#592CB8"/>
<stop offset="1" stop-color="#0B60B0"/>
</linearGradient>
<linearGradient id="paint66_linear_193_829" x1="1.04245e+06" y1="5180.43" x2="1.04245e+06" y2="1399.68" gradientUnits="userSpaceOnUse">
<stop stop-color="#592CB8"/>
<stop offset="1" stop-color="#0B60B0"/>
</linearGradient>
<linearGradient id="paint67_linear_193_829" x1="1.04242e+06" y1="5214.67" x2="1.04242e+06" y2="1408.72" gradientUnits="userSpaceOnUse">
<stop stop-color="#592CB8"/>
<stop offset="1" stop-color="#0B60B0"/>
</linearGradient>
<linearGradient id="paint68_linear_193_829" x1="1.04248e+06" y1="5186.14" x2="1.04248e+06" y2="1400.94" gradientUnits="userSpaceOnUse">
<stop stop-color="#592CB8"/>
<stop offset="1" stop-color="#0B60B0"/>
</linearGradient>
</defs>
</svg>
